<svg width="24" height="24" viewBox="0 0 24 24" fill="none" xmlns="http://www.w3.org/2000/svg">
<path fill-rule="evenodd" clip-rule="evenodd" d="M12 0.000488281C9.77905 0.000488281 7.83994 1.2072 6.80254 3.00075L6.75 3.00049C3.8506 3.00049 1.50015 5.35085 1.5 8.25022C0.589372 8.93439 0 10.0238 0 11.2505C0 13.065 1.28878 14.5786 3.00092 14.9257C3.00031 14.9505 3 14.9755 3 15.0005C3 16.6573 4.34315 18.0005 6 18.0005C6.87839 18.0005 7.66861 17.623 8.21727 17.0213L9 22.5005L9.5 16.5005L12 24.0005L14.5 16.5005L15 22.5005L15.7827 17.0213C16.3314 17.623 17.1216 18.0005 18 18.0005C19.6569 18.0005 21 16.6573 21 15.0005C21 14.9755 20.9997 14.9505 20.9991 14.9257C22.7112 14.5786 24 13.065 24 11.2505C24 10.0236 23.4109 8.93464 22.5 8.25049C22.4999 5.35112 20.1494 3.00049 17.25 3.00049L17.1975 3.00075C16.1601 1.2072 14.221 0.000488281 12 0.000488281ZM20 14.9923C19.1649 14.9373 18.4045 14.609 17.8074 14.0959C18.309 14.3537 18.8859 14.5005 19.4998 14.5005C21.4328 14.5005 22.9997 13.0454 22.9997 11.2505C22.9997 12.148 22.2162 12.8755 21.2497 12.8755C20.8699 12.8755 20.5184 12.7632 20.2315 12.5723C21.6021 11.625 22.5 10.0426 22.5 8.25049C22.5 9.70024 21.3248 10.8755 19.875 10.8755C18.614 10.8755 17.5606 9.98622 17.3078 8.80055C17.7496 7.96465 17.9998 7.01179 17.9998 6.00049C17.9998 7.65734 15.3135 9.00049 11.9998 9.00049C8.68613 9.00049 5.99984 7.65734 5.99984 6.00049C5.99984 7.01179 6.25004 7.96465 6.69191 8.80055C6.4391 9.98622 5.38572 10.8755 4.12464 10.8755C2.67489 10.8755 1.5 9.69997 1.5 8.25022C1.5 10.0424 2.39761 11.625 3.76815 12.5723C3.48131 12.7632 3.12979 12.8755 2.75 12.8755C1.7835 12.8755 1 12.148 1 11.2505C1 13.0454 2.56684 14.5005 4.49984 14.5005C5.11406 14.5005 5.69133 14.3536 6.19312 14.0955C5.59594 14.6088 4.83533 14.9373 4.00002 14.9923L4 15.0005C4 16.1051 4.89543 17.0005 6 17.0005C6.99536 17.0005 7.82089 16.2734 7.9744 15.3213L7.70199 13.4144C9.10282 13.3398 9.68914 12.7947 10.5872 11.8332C11.0402 11.9426 11.5132 12.0005 11.9998 12.0005C12.4864 12.0005 12.9595 11.9426 13.4125 11.8332C14.1651 12.6389 15.1683 13.2075 16.298 13.4144L16.0256 15.3213C16.1791 16.2734 17.0046 17.0005 18 17.0005C19.1046 17.0005 20 16.1051 20 15.0005C20 14.9978 20 14.995 20 14.9923Z" fill="#FFCC00"/>
</svg>
