<svg width="24" height="24" viewBox="0 0 24 24" fill="none" xmlns="http://www.w3.org/2000/svg">
<path d="M12 9.00049L7.5 12.0005V9.00049H3L12 0.000488281L21 9.00049H16.5V12.0005L12 9.00049Z" fill="#FFCC00"/>
<path d="M12 10.5005L7.5 13.5005V15.0005L12 12.0005L16.5 15.0005V13.5005L12 10.5005Z" fill="#FFCC00"/>
<path fill-rule="evenodd" clip-rule="evenodd" d="M24 19C24 17.6944 20.6637 16.5835 16.0062 16.1713L12 13.5005L7.99383 16.1713C3.33628 16.5835 0 17.6944 0 19C0 20.6569 5.37258 22 12 22C18.6274 22 24 20.6569 24 19ZM3 18.2504C3 17.6026 4.80989 17.0371 7.5 16.7345V18.0005L12 15.0005L16.5 18.0005V16.7345C19.1901 17.0371 21 17.6026 21 18.2504C21 19.2169 16.9706 20.0004 12 20.0004C7.02944 20.0004 3 19.2169 3 18.2504Z" fill="#FFCC00"/>
<path d="M11.9999 24.0004C8.13249 24.0004 4.77786 23.4516 3.11426 22.6484C5.53144 23.1808 8.6264 23.5005 12.0001 23.5005C15.3734 23.5005 18.468 23.1809 20.8851 22.6486C19.2214 23.4516 15.867 24.0004 11.9999 24.0004Z" fill="#FFCC00"/>
</svg>
