<svg width="24" height="24" viewBox="0 0 24 24" fill="none" xmlns="http://www.w3.org/2000/svg">
<path fill-rule="evenodd" clip-rule="evenodd" d="M12 24.0005C18.6274 24.0005 24 18.6279 24 12.0005C24 7.31827 21.3184 3.26239 17.4072 1.28488C15.7823 0.463328 13.9452 0.000488281 12 0.000488281C11.6635 0.000488281 11.3301 0.0143427 11.0006 0.0415125C4.84107 0.549663 0 5.70982 0 12.0005C0 18.6279 5.37258 24.0005 12 24.0005ZM22.3979 8.4019C21.8476 6.81173 20.9429 5.38703 19.7782 4.22231L18 6.00049L11 9.50049L12.1009 11.5451L16 8.00049L20 10.0005L22.3979 8.4019ZM16.9878 2.19366C17.6221 2.51694 18.2209 2.89995 18.7768 3.33529L17 6.00049L14.931 6.55221L15 6.50049L16.9878 2.19366ZM12 4.00049V7.33382L10.2692 7.79536L9.5 6.00049L7.5 6.50049V1.96007C8.58483 1.47312 9.76288 1.15681 11 1.04533V2.00049L12 4.00049ZM9 7.00049L11.5312 12.063L10.5 13.0005L8 11.5005L5 14.0005L1.31162 9.39001C1.94975 6.7681 3.52751 4.514 5.66803 3.00458L7 7.00049H9ZM9.5 14.0005L11.9286 12.8576L12.3 13.6005L9.5 15.0005L8 14.0005L3.28599 18.7145C2.44237 17.6212 1.79992 16.3647 1.41407 15.0005H5.5L8 12.5005L9.5 14.0005ZM8 22.2506C9.23973 22.7348 10.5888 23.0005 12 23.0005C14.2136 23.0005 16.2744 22.3466 18 21.2216V19.0005H15L12.7812 14.563L9.5 15.5005L8 15.0005L7.25 16.5005L8 18.0005V22.2506ZM7.02343 21.813L7.5 18.0005L6.92857 17.1433L5.18316 20.6342C5.75354 21.0851 6.36966 21.4808 7.02343 21.813ZM21.2705 17.924C20.9596 18.4095 20.6117 18.869 20.2306 19.2984L18.5 18.0005H15.5L15 17.0005H18.5L21.2705 17.924ZM17.9 16.0005H14.5L12.63 12.5276L13.1651 12.2757L14.5 14.5005H17L17.9 16.0005ZM22.4315 15.5005C22.8002 14.401 23 13.2241 23 12.0005L21 12.0005L18 10.0005L14.1789 11.7987L15.5 14.0005H17L18.5 15.5005H22.4315Z" fill="#FFCC00"/>
</svg>
