<svg width="24" height="24" viewBox="0 0 24 24" fill="none" xmlns="http://www.w3.org/2000/svg">
<path d="M12 3.00049L9 4.50049L10.5 1.50049L13.5 0.000488281L12 3.00049Z" fill="#FFCC00"/>
<path fill-rule="evenodd" clip-rule="evenodd" d="M15 3.00049L22.5 1.50049L18 18.0005L1.5 22.5005L3 16.5005V10.5005L7.5 6.00049H12L15 3.00049ZM7.91421 7.00049H12.4142L15.493 3.92169L21.1095 2.79839L21.0748 2.92571L16.5 7.50049V10.5005H7.5L4.5 19.5005L12 12.0005V18.6003L2.88429 21.0864L4 16.6236V10.9147L7.91421 7.00049Z" fill="#FFCC00"/>
<path d="M4.5 1.50049L1.5 6.00049V10.5005L4.5 6.00049V1.50049Z" fill="#FFCC00"/>
</svg>
