<svg width="24" height="24" viewBox="0 0 24 24" fill="none" xmlns="http://www.w3.org/2000/svg">
<path fill-rule="evenodd" clip-rule="evenodd" d="M10.5478 0.000488281C9.16036 1.10821 7.95494 2.45727 7.00229 4.00627C8.18443 2.94068 9.62907 2.13114 11.2719 1.69102C15.1629 0.648396 19.1297 1.95522 21.6667 4.74183C20.0138 4.09424 18.2423 3.7245 16.4246 3.67401C17.9387 4.16484 19.3622 5.01153 20.5651 6.2142C23.4133 9.06252 24.2652 13.1514 23.1203 16.7416C22.8544 14.986 22.2891 13.267 21.4237 11.6672C21.7557 13.2239 21.7345 14.8806 21.2942 16.5236C20.2513 20.4145 17.1364 23.1967 13.4549 24.0005C14.842 22.8926 16.0478 21.5434 17.0005 19.9943C15.8183 21.0601 14.3733 21.8697 12.7305 22.31C8.83943 23.3525 4.87259 22.0458 2.33558 19.2593C3.98896 19.9068 5.76046 20.2766 7.57854 20.327C6.06446 19.8361 4.64057 18.9894 3.43769 17.7868C0.589479 14.9384 -0.262402 10.8495 0.882471 7.25904C1.14837 9.01414 1.71361 10.7326 2.57861 12.3319C2.24709 10.7757 2.26826 9.11978 2.70817 7.47731C3.75101 3.58626 6.86596 0.804101 10.5478 0.000488281ZM7.08706 8.14774C6.98486 9.05926 7.03733 9.99243 7.25518 10.9063C7.29776 10.0852 7.52976 9.26172 7.9691 8.50082C9.00965 6.69851 10.9362 5.72679 12.8809 5.81797C12.0405 6.18524 11.2583 6.69732 10.5759 7.34287C11.3083 6.96907 12.1376 6.75837 13.0163 6.7583C15.0973 6.75833 16.9022 7.94083 17.7955 9.67059C17.057 9.12638 16.2226 8.70491 15.322 8.43663C16.012 8.88405 16.6094 9.49698 17.0488 10.258C18.0892 12.0604 17.9676 14.2146 16.9164 15.8531C17.0184 14.9417 16.966 14.0083 16.7481 13.0944C16.7056 13.9156 16.4735 14.7393 16.0342 15.5002C14.9936 17.3025 13.0671 18.2742 11.1224 18.1831C11.963 17.8157 12.7452 17.3036 13.4278 16.6579C12.6953 17.0317 11.8659 17.2425 10.9871 17.2426C8.9061 17.2425 7.10121 16.06 6.20783 14.3302C6.94611 14.8742 7.78037 15.2955 8.68059 15.5637C7.99099 15.1163 7.39381 14.5037 6.9545 13.743C5.91403 11.9406 6.0356 9.78633 7.08706 8.14774Z" fill="#FFCC00"/>
</svg>
