<svg width="24" height="24" viewBox="0 0 24 24" fill="none" xmlns="http://www.w3.org/2000/svg">
<path d="M11.9998 1.00049C15.8844 1.00049 19.3711 2.70435 21.7533 5.4055C19.7205 2.15929 16.1121 0.000488281 11.9995 0.000488281C7.88583 0.000488281 4.27665 2.16038 2.24414 5.40796C4.62635 2.70538 8.11397 1.00049 11.9998 1.00049Z" fill="#FFCC00"/>
<path fill-rule="evenodd" clip-rule="evenodd" d="M23 13.0005C23 14.556 22.6771 16.0361 22.0948 17.3774C23.3004 17.8452 24 18.4022 24 19.0001C24 20.657 18.6274 22.0001 12 22.0001C5.37258 22.0001 0 20.657 0 19.0001C0 18.4022 0.699575 17.8452 1.90525 17.3774C1.32287 16.0361 1 14.556 1 13.0005C1 6.92536 5.92487 2.00049 12 2.00049C18.0751 2.00049 23 6.92536 23 13.0005ZM15.2978 16.1148C17.9274 16.3023 20.1883 16.7084 21.7461 17.2495C21.9122 16.5266 22 15.7738 22 15.0005C22 11.0963 19.7626 7.71459 16.5 6.06778V3.00052L13.5 12.0005L18 12.0006L8.80001 19.8862C9.79428 19.9598 10.8729 20.0001 12 20.0001C16.9706 20.0001 21 19.2166 21 18.2501C21 17.4709 18.3812 16.8107 14.7617 16.584L15.2978 16.1148ZM12 5.00049C12.6659 5.00049 13.3165 5.06557 13.9459 5.18971L6 12.0005H10.5L9.1382 16.086C6.32279 16.2582 3.89715 16.6787 2.25391 17.2495C2.08778 16.5266 2 15.7738 2 15.0005C2 9.47764 6.47715 5.00049 12 5.00049ZM3 18.2501C3 17.4906 5.48828 16.8441 8.96619 16.602L7.89747 19.8081C4.98969 19.518 3 18.9292 3 18.2501Z" fill="#FFCC00"/>
<path d="M11.9999 24.0005C8.13249 24.0005 4.77786 23.4517 3.11426 22.6486C5.53144 23.1809 8.6264 23.5006 12.0001 23.5006C15.3734 23.5006 18.468 23.181 20.8851 22.6487C19.2214 23.4518 15.867 24.0005 11.9999 24.0005Z" fill="#FFCC00"/>
</svg>
