<svg width="48" height="48" viewBox="0 0 48 48" fill="none" xmlns="http://www.w3.org/2000/svg">
<rect width="48" height="48" fill="url(#paint0_radial_11617_48712)"/>
<path d="M25.744 12.8437L24.0002 15.75L22.2564 12.8437C21.9756 12.3755 21.3711 12.2192 20.8984 12.4924L20.222 12.8835C19.7415 13.1613 19.5792 13.7772 19.8603 14.2558L22.5003 18.7501V21.402L20.2037 20.076L17.6315 15.5426C17.3576 15.0598 16.7431 14.8925 16.2623 15.1697L15.5854 15.56C15.1124 15.8327 14.9456 16.4344 15.2105 16.9117L16.8556 19.875L13.4668 19.932C12.9209 19.9412 12.4833 20.3865 12.4836 20.9325L12.4841 21.7138C12.4844 22.2688 12.9366 22.7174 13.4916 22.7132L18.7036 22.674L21.0003 24L18.7034 25.3261L13.4914 25.2869C12.9364 25.2828 12.4842 25.7313 12.4839 26.2863L12.4834 27.0677C12.4831 27.6136 12.9207 28.059 13.4666 28.0681L16.8554 28.1251L15.2103 31.0885C14.9453 31.5658 15.1122 32.1675 15.5851 32.4402L16.262 32.8304C16.7428 33.1077 17.3574 32.9403 17.6313 32.4576L20.2034 27.9242L22.5003 26.5981V29.2503L19.8603 33.7446C19.5792 34.2231 19.7415 34.839 20.222 35.1168L20.8984 35.5079C21.3711 35.7811 21.9756 35.6248 22.2564 35.1566L24.0002 32.2503L25.744 35.1566C26.0249 35.6248 26.6294 35.7811 27.102 35.5079L27.7785 35.1168C28.259 34.839 28.4213 34.2231 28.1402 33.7446L25.5003 29.2504V26.5981L27.7974 27.9244L30.3694 32.4576C30.6433 32.9403 31.2579 33.1077 31.7387 32.8304L32.4156 32.4401C32.8886 32.1674 33.0554 31.5658 32.7904 31.0885L31.1454 28.1251L34.5341 28.0681C35.08 28.0589 35.5176 27.6136 35.5173 27.0677L35.5169 26.2863C35.5166 25.7313 35.0643 25.2828 34.5094 25.2869L29.2971 25.3261L27.0003 24L29.2969 22.6741L34.5091 22.7132C35.0641 22.7174 35.5163 22.2688 35.5166 21.7138L35.5171 20.9325C35.5174 20.3865 35.0798 19.9412 34.5339 19.932L31.1451 19.875L32.7902 16.9117C33.0552 16.4344 32.8883 15.8327 32.4154 15.56L31.7385 15.1697C31.2577 14.8925 30.6431 15.0599 30.3692 15.5426L27.7972 20.0758L25.5003 21.4019V18.7499L28.1402 14.2558C28.4213 13.7772 28.259 13.1613 27.7785 12.8835L27.102 12.4924C26.6294 12.2192 26.0249 12.3755 25.744 12.8437Z" fill="white"/>
<defs>
<radialGradient id="paint0_radial_11617_48712" cx="0" cy="0" r="1" gradientUnits="userSpaceOnUse" gradientTransform="translate(24 24) rotate(90) scale(24)">
<stop stop-color="#0080FF"/>
<stop offset="1" stop-color="#0080FF" stop-opacity="0"/>
</radialGradient>
</defs>
</svg>
