<svg width="16" height="16" viewBox="0 0 16 16" fill="none" xmlns="http://www.w3.org/2000/svg">
<path fill-rule="evenodd" clip-rule="evenodd" d="M12.3107 1.52786L7.60845 0L2.90617 1.52786L1.80686 3.04094C1.98427 3.11774 2.1084 3.29437 2.1084 3.5C2.1084 3.77614 1.88454 4 1.6084 4H1.11006L0 5.52786V9H1.34086L3.19243 6.22265L3.34086 6H3.60845H6.60845H6.87604L7.02448 6.22265L8.87604 9H11.3409L13.1924 6.22265L13.3409 6H13.6085H15.2169V5.52786L14.1068 4H13.6084C13.3323 4 13.1084 3.77614 13.1084 3.5C13.1084 3.29434 13.2326 3.11768 13.41 3.0409L12.3107 1.52786ZM15.2169 7H13.876L12.0245 9.77735L11.876 10H11.6085H8.60845H8.34086L8.19243 9.77735L6.34086 7H3.87604L2.02448 9.77735L1.87604 10H1.60845H0V10.4721L1.11006 12H1.6084C1.88454 12 2.1084 12.2239 2.1084 12.5C2.1084 12.7056 1.98427 12.8823 1.80686 12.9591L2.90617 14.4721L7.60845 16L12.3107 14.4721L13.41 12.9591C13.2326 12.8823 13.1084 12.7057 13.1084 12.5C13.1084 12.2239 13.3323 12 13.6084 12H14.1068L15.2169 10.4721V7ZM6.3584 12.5C6.3584 12.7761 6.13454 13 5.8584 13C5.58226 13 5.3584 12.7761 5.3584 12.5C5.3584 12.2239 5.58226 12 5.8584 12C6.13454 12 6.3584 12.2239 6.3584 12.5ZM3.3584 13C3.63454 13 3.8584 12.7761 3.8584 12.5C3.8584 12.2239 3.63454 12 3.3584 12C3.08226 12 2.8584 12.2239 2.8584 12.5C2.8584 12.7761 3.08226 13 3.3584 13ZM9.8584 12.5C9.8584 12.7761 9.63454 13 9.3584 13C9.08226 13 8.8584 12.7761 8.8584 12.5C8.8584 12.2239 9.08226 12 9.3584 12C9.63454 12 9.8584 12.2239 9.8584 12.5ZM11.8584 13C12.1345 13 12.3584 12.7761 12.3584 12.5C12.3584 12.2239 12.1345 12 11.8584 12C11.5823 12 11.3584 12.2239 11.3584 12.5C11.3584 12.7761 11.5823 13 11.8584 13ZM6.3584 3.5C6.3584 3.77614 6.13454 4 5.8584 4C5.58226 4 5.3584 3.77614 5.3584 3.5C5.3584 3.22386 5.58226 3 5.8584 3C6.13454 3 6.3584 3.22386 6.3584 3.5ZM3.3584 4C3.63454 4 3.8584 3.77614 3.8584 3.5C3.8584 3.22386 3.63454 3 3.3584 3C3.08226 3 2.8584 3.22386 2.8584 3.5C2.8584 3.77614 3.08226 4 3.3584 4ZM9.8584 3.5C9.8584 3.77614 9.63454 4 9.3584 4C9.08226 4 8.8584 3.77614 8.8584 3.5C8.8584 3.22386 9.08226 3 9.3584 3C9.63454 3 9.8584 3.22386 9.8584 3.5ZM11.8584 4C12.1345 4 12.3584 3.77614 12.3584 3.5C12.3584 3.22386 12.1345 3 11.8584 3C11.5823 3 11.3584 3.22386 11.3584 3.5C11.3584 3.77614 11.5823 4 11.8584 4Z" fill="white"/>
</svg>
