<svg width="96" height="96" viewBox="0 0 96 96" fill="none" xmlns="http://www.w3.org/2000/svg">
<path d="M56 46L66 48L72 66L60 72V66H36V72L24.0004 66L30 48L40 46V42L21.1269 31.7056C19.1993 30.6542 18 28.6339 18 26.4382V6.00016C26 2 36 -8.41836e-05 48 2.65754e-09C60 8.41942e-05 72 2 78 6.00009V26.4382C78 28.6339 76.8007 30.6542 74.8731 31.7056L56 42V46Z" fill="#FFFFFF"/>
<path d="M77.185 61.8267L72 48L84 42V12.0001C90 16 96 24 96 36V50.4696C96 52.6486 94.8186 54.6563 92.9139 55.7145L80.029 62.8728C78.9605 63.4664 77.6142 62.9712 77.185 61.8267Z" fill="#FFFFFF"/>
<path d="M12 42L24 48L18.815 61.8267C18.3858 62.9712 17.0395 63.4664 15.971 62.8728L3.08614 55.7145C1.18135 54.6563 0 52.6486 0 50.4696V36C0 24 6 16 12 12.0001V42Z" fill="#FFFFFF"/>
<path d="M24 78L24.0004 84C24.0004 90 30 96 36 96H60C66 96 72 90 72 84V78L60 84L54 78L48 84L42 78L36 84L24 78Z" fill="#FFFFFF"/>
</svg>
