<svg width="48" height="48" viewBox="0 0 48 48" fill="none" xmlns="http://www.w3.org/2000/svg">
<rect width="48" height="48" fill="url(#paint0_radial_11617_48720)"/>
<path d="M23.225 32.2583L12 36L22.5 30L20.2626 24.4064C19.8029 23.2572 20.0962 21.9436 21.001 21.099L29.6649 13.0128C30.3622 12.362 31.2849 12 32.2388 12C34.3098 12 36 13.6789 36 15.75C36 17.1349 35.2367 18.4071 34.0147 19.0588L24.75 24L25.2614 29.1138C25.4009 30.5091 24.5553 31.8149 23.225 32.2583Z" fill="white"/>
<path d="M21.0828 16.1036L15.75 21.75L18.7954 27.2317C19.1883 27.9389 18.9496 28.8302 18.2559 29.2464L12 33L16.5 28.5L13.0662 23.3494C12.4164 22.3746 12.3934 21.1107 13.0074 20.113L17.2981 13.1405C17.7343 12.4318 18.507 12 19.3392 12C20.3382 12 21.237 12.632 21.5878 13.5674C21.914 14.4372 21.7206 15.4282 21.0828 16.1036Z" fill="white"/>
<path d="M30.75 29.25L34.9043 27.4696C35.569 27.1847 36 26.5227 36 25.7995C36 24.8126 35.2 24 34.213 24C33.9094 24 33.6107 24.0774 33.3452 24.2249L29.3673 26.4349C28.0225 27.1819 27.4608 28.8251 28.0667 30.2391L29.25 33L21 36L30.529 34.7295C31.4361 34.6085 32.0244 33.7105 31.773 32.8305L30.75 29.25Z" fill="white"/>
<defs>
<radialGradient id="paint0_radial_11617_48720" cx="0" cy="0" r="1" gradientUnits="userSpaceOnUse" gradientTransform="translate(24 24) rotate(90) scale(24)">
<stop stop-color="#FF4040" stop-opacity="0.75"/>
<stop offset="1" stop-color="#FF4040" stop-opacity="0"/>
</radialGradient>
</defs>
</svg>
