<svg width="48" height="48" viewBox="0 0 48 48" fill="none" xmlns="http://www.w3.org/2000/svg">
<rect width="48" height="48" fill="url(#paint0_radial_11617_48676)"/>
<path d="M25.5 12.0928C25.0086 12.0316 24.508 12 24 12C18.4085 12 13.7102 15.8243 12.3781 21H14.8049C15.2288 21 15.6016 20.7304 15.7739 20.3432C16.9803 17.6335 19.4862 15.6301 22.5 15.1244V19.6716C22.5 20.202 22.7107 20.7107 23.0858 21.0858L24 22L24.9142 21.0858C25.2893 20.7107 25.5 20.202 25.5 19.6716V12.0928Z" fill="white"/>
<path d="M27.6568 15.7739C30.3665 16.9803 32.3699 19.4862 32.8756 22.5H28.3284C27.798 22.5 27.2893 22.7107 26.9142 23.0858L26 24L26.9142 24.9142C27.2893 25.2893 27.798 25.5 28.3284 25.5H35.9072C35.9684 25.0086 36 24.508 36 24C36 18.4085 32.1757 13.7102 27 12.3781V14.8049C27 15.2288 27.2696 15.6016 27.6568 15.7739Z" fill="white"/>
<path d="M32.2261 27.6568C32.3984 27.2696 32.7712 27 33.1951 27H35.6219C34.2898 32.1757 29.5915 36 24 36C23.492 36 22.9914 35.9684 22.5 35.9072V28.3284C22.5 27.798 22.7107 27.2893 23.0858 26.9142L24 26L24.9142 26.9142C25.2893 27.2893 25.5 27.798 25.5 28.3284V32.8756C28.5138 32.3699 31.0197 30.3665 32.2261 27.6568Z" fill="white"/>
<path d="M12.0928 22.5H19.6716C20.202 22.5 20.7107 22.7107 21.0858 23.0858L22 24L21.0858 24.9142C20.7107 25.2893 20.202 25.5 19.6716 25.5H15.1244C15.6301 28.5138 17.6335 31.0197 20.3432 32.2261C20.7304 32.3984 21 32.7712 21 33.1951V35.6219C15.8243 34.2898 12 29.5915 12 24C12 23.492 12.0316 22.9914 12.0928 22.5Z" fill="white"/>
<defs>
<radialGradient id="paint0_radial_11617_48676" cx="0" cy="0" r="1" gradientUnits="userSpaceOnUse" gradientTransform="translate(24 24) rotate(90) scale(24)">
<stop offset="0.354167" stop-color="#FF4040" stop-opacity="0.6"/>
<stop offset="1" stop-color="#FF4040" stop-opacity="0"/>
</radialGradient>
</defs>
</svg>
