<svg width="48" height="48" viewBox="0 0 48 48" fill="none" xmlns="http://www.w3.org/2000/svg">
<rect width="48" height="48" fill="url(#paint0_radial_11617_48686)"/>
<path fill-rule="evenodd" clip-rule="evenodd" d="M27.25 12.8764C25.2389 11.7153 22.7611 11.7153 20.75 12.8765L15.9917 15.6237C13.9806 16.7848 12.7417 18.9306 12.7417 21.2528V26.7473C12.7417 29.0695 13.9806 31.2153 15.9917 32.3764L20.75 35.1237C22.7611 36.2848 25.2389 36.2848 27.25 35.1237L32.0084 32.3764C34.0195 31.2153 35.2584 29.0695 35.2584 26.7473V21.2528C35.2584 18.9306 34.0195 16.7848 32.0084 15.6237L27.25 12.8764ZM27 16.5001C27 18.1569 25.6568 19.5001 24 19.5001C22.3433 19.5001 21 18.1569 21 16.5001C21 14.8432 22.3433 13.5001 24 13.5001C25.6568 13.5001 27 14.8432 27 16.5001ZM27 31.5001C27 33.1569 25.6568 34.5001 24 34.5001C22.3433 34.5001 21 33.1569 21 31.5001C21 29.8432 22.3433 28.5001 24 28.5001C25.6568 28.5001 27 29.8432 27 31.5001ZM27.8971 21.7501C28.7256 23.185 30.5603 23.6766 31.9952 22.8482C33.4301 22.0198 33.9217 20.185 33.0933 18.7501C32.2649 17.3152 30.4301 16.8236 28.9952 17.652C27.5603 18.4805 27.0687 20.3152 27.8971 21.7501ZM14.9068 29.2501C15.7352 30.685 17.57 31.1766 19.0048 30.3482C20.4397 29.5198 20.9313 27.685 20.1029 26.2501C19.2745 24.8152 17.4397 24.3236 16.0048 25.152C14.57 25.9805 14.0783 27.8152 14.9068 29.2501ZM19.0048 17.6519C20.4397 18.4804 20.9313 20.3151 20.1029 21.75C19.2745 23.1849 17.4397 23.6765 16.0048 22.8481C14.57 22.0197 14.0783 20.1849 14.9068 18.75C15.7352 17.3151 17.57 16.8235 19.0048 17.6519ZM31.9952 25.1519C33.4301 25.9804 33.9217 27.8151 33.0933 29.25C32.2649 30.6849 30.4301 31.1765 28.9952 30.3481C27.5603 29.5197 27.0687 27.6849 27.8971 26.25C28.7256 24.8151 30.5603 24.3235 31.9952 25.1519Z" fill="white"/>
<defs>
<radialGradient id="paint0_radial_11617_48686" cx="0" cy="0" r="1" gradientUnits="userSpaceOnUse" gradientTransform="translate(24 24) rotate(90) scale(24)">
<stop stop-color="#3F6B80"/>
<stop offset="1" stop-color="#609FBF" stop-opacity="0"/>
</radialGradient>
</defs>
</svg>
